<svg width="13" height="13" viewBox="0 0 13 13" fill="none" xmlns="http://www.w3.org/2000/svg">
<path d="M6.63696 1.625C3.94165 1.625 1.76196 3.82812 1.76196 6.5V7.4375C1.76196 7.76562 1.50415 8 1.19946 8C0.871338 8 0.636963 7.76562 0.636963 7.4375V6.5C0.636963 3.19531 3.30884 0.5 6.63696 0.5C9.94165 0.5 12.637 3.19531 12.637 6.5V9.89844C12.637 11.0234 11.6995 11.9609 10.551 11.9609L7.9729 11.9375C7.7854 12.2891 7.4104 12.5 7.01196 12.5H6.26196C5.62915 12.5 5.13696 12.0078 5.13696 11.375C5.13696 10.7656 5.62915 10.25 6.26196 10.25H7.01196C7.4104 10.25 7.7854 10.4844 7.9729 10.8125L10.5745 10.8359C11.0901 10.8359 11.512 10.4141 11.512 9.89844V6.5C11.512 3.82812 9.30884 1.625 6.63696 1.625ZM4.01196 5.375H4.38696C4.7854 5.375 5.13696 5.72656 5.13696 6.125V8.75C5.13696 9.17188 4.7854 9.5 4.38696 9.5H4.01196C3.16821 9.5 2.51196 8.84375 2.51196 8V6.875C2.51196 6.05469 3.16821 5.375 4.01196 5.375ZM9.26196 5.375C10.0823 5.375 10.762 6.05469 10.762 6.875V8C10.762 8.84375 10.0823 9.5 9.26196 9.5H8.88696C8.46509 9.5 8.13696 9.17188 8.13696 8.75V6.125C8.13696 5.72656 8.46509 5.375 8.88696 5.375H9.26196Z" fill="url(#paint0_linear_2557_288)"/>
<defs>
<linearGradient id="paint0_linear_2557_288" x1="1" y1="1.5" x2="12" y2="13" gradientUnits="userSpaceOnUse">
<stop stop-color="#5648FB"/>
<stop offset="1" stop-color="#3C2EDD"/>
</linearGradient>
</defs>
</svg>
