<svg width="9" height="11" viewBox="0 0 9 11" fill="none" xmlns="http://www.w3.org/2000/svg">
<path d="M0.886963 0.8125C0.886963 0.507812 1.12134 0.25 1.42603 0.25C1.54321 0.25 1.68384 0.320312 1.77759 0.390625L8.19946 6.10938C8.31665 6.20312 8.38696 6.34375 8.38696 6.48438C8.38696 6.78906 8.15259 7 7.8479 7H5.08228L6.41821 9.67188C6.60571 10.0469 6.46509 10.4922 6.09009 10.6797C5.71509 10.8672 5.26978 10.7266 5.08228 10.3516L3.7229 7.60938L1.77759 9.83594C1.68384 9.95312 1.54321 10 1.40259 10C1.0979 10 0.886963 9.78906 0.886963 9.48438V0.8125Z" fill="url(#paint0_linear_2557_285)"/>
<defs>
<linearGradient id="paint0_linear_2557_285" x1="-1" y1="0.5" x2="10" y2="12" gradientUnits="userSpaceOnUse">
<stop stop-color="#5648FB"/>
<stop offset="1" stop-color="#3C2EDD"/>
</linearGradient>
</defs>
</svg>
