<svg width="15" height="11" viewBox="0 0 15 11" fill="none" xmlns="http://www.w3.org/2000/svg">
<path d="M6.7229 10.5625C6.11353 10.3281 5.0354 10 4.26196 10C3.3479 10 2.17603 10.3047 1.44946 10.5391C1.16821 10.6328 0.886963 10.4219 0.886963 10.1641V1.46875C0.886963 1.1875 1.02759 0.929688 1.30884 0.835938C1.96509 0.578125 3.06665 0.25 4.26196 0.25C5.62134 0.25 6.67603 0.71875 7.14478 1.09375C7.21509 1.16406 7.26196 1.25781 7.26196 1.35156V10.1875C7.26196 10.4688 6.98071 10.6562 6.7229 10.5625ZM8.52759 10.5625C8.26978 10.6562 8.01196 10.4688 8.01196 10.1875V1.35156C8.01196 1.25781 8.0354 1.16406 8.12915 1.09375C8.57446 0.71875 9.62915 0.25 11.012 0.25C12.1838 0.25 13.2854 0.578125 13.9417 0.835938C14.2229 0.929688 14.387 1.1875 14.387 1.46875V10.1641C14.387 10.4219 14.0823 10.6328 13.801 10.5391C13.0745 10.3047 11.9026 10 11.012 10C10.2151 10 9.1604 10.3281 8.52759 10.5625Z" fill="url(#paint0_linear_2557_286)"/>
<defs>
<linearGradient id="paint0_linear_2557_286" x1="2" y1="0.5" x2="13" y2="12" gradientUnits="userSpaceOnUse">
<stop stop-color="#5648FB"/>
<stop offset="1" stop-color="#3C2EDD"/>
</linearGradient>
</defs>
</svg>
