<svg width="13" height="11" viewBox="0 0 13 11" fill="none" xmlns="http://www.w3.org/2000/svg">
<path d="M6.63696 10V10.0234C5.74634 10.0234 4.92603 9.85938 4.17603 9.60156C3.91821 9.78906 3.44946 10.0703 2.9104 10.3047C2.3479 10.5625 1.66821 10.7734 1.01196 10.7734C0.8479 10.7734 0.707275 10.6797 0.6604 10.5391C0.590088 10.3984 0.636963 10.2344 0.730713 10.1172C0.75415 10.1172 0.75415 10.0938 0.777588 10.0938C0.801025 10.0469 0.8479 10 0.894775 9.95312C0.988525 9.83594 1.10571 9.64844 1.24634 9.4375C1.48071 9.0625 1.69165 8.54688 1.73853 7.96094C1.0354 7.16406 0.636963 6.20312 0.636963 5.125C0.636963 2.45312 3.30884 0.25 6.63696 0.25C9.94165 0.25 12.637 2.45312 12.637 5.125C12.637 7.82031 9.94165 10 6.63696 10ZM3.63696 4.375C3.21509 4.375 2.88696 4.72656 2.88696 5.125C2.88696 5.54688 3.21509 5.875 3.63696 5.875C4.0354 5.875 4.38696 5.54688 4.38696 5.125C4.38696 4.72656 4.0354 4.375 3.63696 4.375ZM6.63696 4.375C6.21509 4.375 5.88696 4.72656 5.88696 5.125C5.88696 5.54688 6.21509 5.875 6.63696 5.875C7.0354 5.875 7.38696 5.54688 7.38696 5.125C7.38696 4.72656 7.0354 4.375 6.63696 4.375ZM8.88696 5.125C8.88696 5.54688 9.21509 5.875 9.63696 5.875C10.0354 5.875 10.387 5.54688 10.387 5.125C10.387 4.72656 10.0354 4.375 9.63696 4.375C9.21509 4.375 8.88696 4.72656 8.88696 5.125Z" fill="url(#paint0_linear_2557_287)"/>
<defs>
<linearGradient id="paint0_linear_2557_287" x1="1" y1="0.5" x2="12" y2="12" gradientUnits="userSpaceOnUse">
<stop stop-color="#5648FB"/>
<stop offset="1" stop-color="#3C2EDD"/>
</linearGradient>
</defs>
</svg>
