<svg width="11" height="13" viewBox="0 0 11 13" fill="none" xmlns="http://www.w3.org/2000/svg">
<path d="M5.63696 6.5C4.55884 6.5 3.57446 5.9375 3.0354 5C2.49634 4.08594 2.49634 2.9375 3.0354 2C3.57446 1.08594 4.55884 0.5 5.63696 0.5C6.69165 0.5 7.67603 1.08594 8.21509 2C8.75415 2.9375 8.75415 4.08594 8.21509 5C7.67603 5.9375 6.69165 6.5 5.63696 6.5ZM4.55884 7.625H6.69165C9.01196 7.625 10.887 9.5 10.887 11.8203C10.887 12.1953 10.5588 12.5 10.1838 12.5H1.06665C0.69165 12.5 0.386963 12.1953 0.386963 11.8203C0.386963 9.5 2.23853 7.625 4.55884 7.625Z" fill="url(#paint0_linear_2557_284)"/>
<defs>
<linearGradient id="paint0_linear_2557_284" x1="3.44292e-08" y1="1.5" x2="11" y2="13" gradientUnits="userSpaceOnUse">
<stop stop-color="#5648FB"/>
<stop offset="1" stop-color="#3C2EDD"/>
</linearGradient>
</defs>
</svg>
